<?xml version="1.0" standalone="no"?>
<!DOCTYPE svg PUBLIC "-//W3C//DTD SVG 20010904//EN"
 "http://www.w3.org/TR/2001/REC-SVG-20010904/DTD/svg10.dtd">
<svg version="1.0" xmlns="http://www.w3.org/2000/svg"
 width="219.000000pt" height="219.000000pt" viewBox="0 0 219.000000 219.000000"
 preserveAspectRatio="xMidYMid meet">
<metadata>
Created by potrace 1.11, written by Peter Selinger 2001-2013
</metadata>
<g transform="translate(0.000000,219.000000) scale(0.100000,-0.100000)"
fill="#000000" stroke="none">
<path d="M0 1910 l0 -280 21 12 c21 13 22 40 3 145 -5 25 -2 34 10 39 22 8 30
-1 21 -23 -5 -10 -7 -22 -6 -28 2 -5 4 -35 6 -66 2 -31 11 -68 20 -82 15 -23
15 -29 1 -59 -8 -18 -14 -52 -13 -75 l2 -43 40 0 c33 0 44 6 66 33 14 17 29
44 32 59 6 21 15 28 47 33 22 4 40 11 40 16 0 5 -4 9 -10 9 -19 0 -10 38 11
43 29 8 56 -3 37 -15 -10 -7 -9 -10 5 -19 9 -6 15 -14 12 -19 -9 -15 14 -21
35 -10 12 6 20 20 19 33 -1 17 -2 18 -6 5 -6 -24 -29 -23 -36 2 -3 11 -1 20 4
20 5 0 9 11 9 25 0 14 5 25 10 25 6 0 10 -9 10 -21 0 -15 5 -19 15 -15 10 4
19 -2 25 -18 7 -19 15 -23 40 -21 31 2 65 39 90 97 9 19 9 18 4 -9 -4 -27 -2
-33 11 -33 12 0 16 6 12 20 -3 10 0 24 7 29 14 11 9 81 -5 81 -5 0 -9 -12 -9
-26 0 -21 -4 -25 -19 -21 -14 3 -17 0 -14 -14 6 -23 9 -23 -66 -3 -34 8 -66
12 -71 9 -6 -3 -10 5 -10 19 0 14 -11 34 -28 48 -16 13 -27 29 -24 36 2 7 -3
12 -12 12 -20 0 -21 14 -1 30 17 14 20 40 5 40 -5 0 -10 8 -10 18 1 16 1 16
14 0 7 -10 18 -18 25 -18 6 0 11 -9 11 -20 0 -11 5 -20 10 -20 6 0 10 7 10 15
0 8 5 15 10 15 6 0 10 -18 10 -39 0 -40 11 -51 51 -51 13 0 19 -7 19 -21 0
-15 5 -20 23 -17 21 3 22 7 23 95 0 74 4 96 18 112 17 19 17 20 -3 31 -29 15
-27 40 3 40 18 0 25 6 28 23 2 14 11 23 26 25 14 2 22 10 22 23 0 10 5 19 10
19 6 0 10 7 10 15 0 22 -256 21 -284 0 -25 -19 -36 -19 -36 0 0 13 -25 15
-165 15 l-165 0 0 -280z m150 131 c0 -5 -7 -14 -15 -21 -16 -14 -18 -10 -9 14
6 17 24 22 24 7z m277 -98 c-3 -10 -5 -4 -5 12 0 17 2 24 5 18 2 -7 2 -21 0
-30z m-162 -223 c11 -17 -40 -21 -70 -6 l-30 16 47 0 c26 0 50 -4 53 -10z"/>
<path d="M690 2157 c0 -31 3 -34 21 -30 19 5 20 8 7 17 -8 6 -13 16 -11 23 2
6 -1 14 -6 18 -7 4 -11 -7 -11 -28z"/>
<path d="M790 2156 c0 -19 6 -36 14 -39 19 -7 25 -64 10 -85 -15 -19 -19 -76
-5 -68 5 4 11 0 14 -6 5 -15 37 55 37 81 0 13 2 13 9 2 5 -8 16 -11 30 -6 23
7 28 -4 9 -23 -9 -9 -2 -11 31 -8 l44 4 -31 -18 c-17 -10 -61 -28 -99 -39
-113 -34 -182 -97 -218 -198 -11 -29 -22 -53 -25 -53 -3 0 -7 -28 -8 -62 -2
-35 -8 -68 -13 -74 -5 -7 -35 -15 -67 -18 -76 -9 -92 -15 -92 -31 0 -20 17
-28 85 -40 41 -8 60 -16 60 -26 0 -10 -14 -14 -55 -15 -72 -2 -102 -11 -98
-32 2 -13 17 -18 63 -20 l61 -3 -7 -62 c-6 -66 -2 -125 12 -143 5 -6 10 -19
12 -30 1 -11 16 -47 32 -79 16 -33 30 -63 30 -67 0 -3 3 -10 8 -14 4 -4 7 -15
7 -25 0 -11 9 -19 22 -21 20 -3 24 -13 35 -88 7 -47 25 -110 39 -140 15 -30
36 -75 47 -100 27 -58 46 -80 69 -80 25 0 23 -15 -7 -34 -36 -24 -56 -68 -48
-108 17 -89 70 -143 210 -212 98 -49 177 -66 309 -66 177 0 321 47 425 139 77
68 109 171 52 171 -7 0 -13 7 -11 16 2 9 -7 23 -19 31 -22 14 -23 14 -23 -6 0
-37 -37 -96 -77 -122 -177 -116 -469 -141 -654 -56 -81 38 -110 63 -134 119
-25 61 -18 112 12 82 8 -8 30 -26 49 -41 67 -50 219 -39 322 25 39 23 130 124
181 199 60 88 80 150 87 268 4 55 10 109 14 120 8 19 9 19 18 -5 l9 -24 13 21
c8 11 19 19 26 16 7 -3 10 4 7 20 -6 32 13 43 37 22 20 -18 20 -38 -2 -100
-16 -43 -36 -63 -70 -70 l-30 -7 4 -119 c4 -128 22 -178 34 -100 7 46 27 63
81 66 22 1 37 -4 43 -14 12 -21 29 -5 47 46 15 42 15 243 0 243 -5 0 -6 11 -3
24 3 14 2 28 -4 31 -5 3 -10 35 -10 69 0 37 -6 76 -15 92 -15 30 -28 88 -65
289 -38 210 -52 240 -169 354 -60 60 -182 131 -223 131 -8 0 -24 7 -36 16 -17
12 -34 14 -65 9 -23 -3 -62 -7 -86 -7 -24 0 -38 -4 -31 -8 8 -5 7 -9 -5 -14
-9 -3 -21 -4 -26 0 -12 7 -11 34 1 34 15 0 12 19 -6 37 -11 11 -14 27 -11 50
l6 33 -110 0 -109 0 0 -34z m307 -316 c21 0 24 -4 20 -22 -4 -13 -9 -41 -12
-63 -19 -119 -21 -123 -66 -123 -29 -1 -43 5 -54 21 -13 18 -17 19 -24 8 -5
-8 -18 -16 -28 -17 -10 -1 -28 -6 -40 -9 -14 -5 -23 -3 -23 3 0 6 8 13 19 17
16 5 17 10 8 45 -14 50 -2 62 28 28 33 -39 72 -22 84 37 1 6 9 14 17 18 9 5
13 16 9 28 -4 13 -2 19 9 19 9 0 16 8 17 18 0 10 3 12 6 5 2 -7 16 -13 30 -13z
m-240 -162 c-3 -7 -5 -2 -5 12 0 14 2 19 5 13 2 -7 2 -19 0 -25z m40 -114 c-3
-3 -12 -4 -19 -1 -8 3 -5 6 6 6 11 1 17 -2 13 -5z m291 1 c-8 -8 -201 -11
-228 -4 -14 4 33 7 104 8 71 1 127 -1 124 -4z m-395 -12 c-7 -2 -19 -2 -25 0
-7 3 -2 5 12 5 14 0 19 -2 13 -5z m470 0 c-7 -2 -19 -2 -25 0 -7 3 -2 5 12 5
14 0 19 -2 13 -5z m44 1 c-3 -3 -12 -4 -19 -1 -8 3 -5 6 6 6 11 1 17 -2 13 -5z
m70 0 c-3 -3 -12 -4 -19 -1 -8 3 -5 6 6 6 11 1 17 -2 13 -5z m-124 -112 c-11
-14 -39 -32 -64 -41 -43 -14 -44 -15 -16 -22 31 -8 86 4 100 23 5 8 7 -4 4
-31 -3 -26 -12 -48 -21 -53 -19 -11 -21 -48 -3 -48 7 -1 5 -6 -6 -14 -16 -12
-16 -14 -1 -20 36 -14 84 66 84 141 0 55 13 86 24 56 25 -71 45 -115 45 -99 1
16 3 16 17 6 28 -24 33 -45 22 -88 -11 -45 2 -78 28 -68 30 12 39 -19 37 -125
-4 -166 -5 -183 -21 -195 -11 -8 -12 -16 -5 -29 11 -19 7 -31 -32 -90 -27 -42
-51 -65 -60 -57 -5 4 -6 -3 -3 -15 4 -16 2 -20 -8 -16 -9 3 -14 -2 -14 -17 0
-11 -4 -19 -9 -16 -5 3 -11 -3 -14 -14 -3 -10 -21 -26 -41 -34 -34 -14 -74
-45 -68 -53 1 -2 0 -3 -3 -3 -9 1 -33 -25 -29 -31 3 -6 -33 -26 -50 -27 -5 0
-13 -7 -18 -16 -15 -26 -96 -19 -143 12 -22 15 -46 33 -53 39 -19 19 -100 177
-111 220 -6 21 -24 52 -41 70 -16 18 -30 38 -30 46 0 8 -7 17 -15 21 -8 3 -15
14 -15 24 0 10 -3 22 -6 25 -4 4 -8 21 -9 39 -1 18 -6 73 -10 122 -6 62 -5 87
2 83 8 -5 9 12 6 53 -7 72 7 94 68 104 22 4 38 10 35 15 -3 5 15 11 40 14 26
2 49 9 53 13 3 5 15 16 26 24 l20 15 -20 -24 -20 -24 25 7 c14 5 41 10 60 13
19 3 45 13 58 21 12 8 25 12 29 8 3 -3 1 -6 -5 -6 -7 0 -12 -5 -12 -10 0 -19
75 21 114 61 26 26 46 39 57 36 12 -3 21 2 26 17 6 19 7 19 11 2 2 -10 -5 -30
-15 -44z m127 28 c0 -5 -2 -10 -4 -10 -3 0 -8 5 -11 10 -3 6 -1 10 4 10 6 0
11 -4 11 -10z m-250 -34 c0 -2 -7 -9 -15 -16 -13 -11 -14 -10 -9 4 5 14 24 23
24 12z m-90 -25 c0 -12 -20 -25 -27 -18 -7 7 6 27 18 27 5 0 9 -4 9 -9z m470
-34 c0 -6 -9 -2 -20 8 -11 10 -20 23 -20 28 0 6 9 2 20 -8 11 -10 20 -23 20
-28z m-530 29 c0 -11 -19 -15 -25 -6 -3 5 1 10 9 10 9 0 16 -2 16 -4z m588
-19 c3 -12 -4 -17 -22 -17 -24 0 -35 18 -20 32 11 11 39 1 42 -15z m42 -3 c0
-2 -7 -4 -15 -4 -8 0 -15 4 -15 10 0 5 7 7 15 4 8 -4 15 -8 15 -10z m-126 -13
c8 -13 -4 -42 -15 -35 -12 7 -12 44 0 44 6 0 12 -4 15 -9z"/>
<path d="M1181 1198 c-12 -19 -11 -23 4 -35 21 -14 45 -1 45 24 0 10 6 13 18
8 11 -4 13 -3 7 3 -5 5 -21 12 -35 15 -19 5 -29 1 -39 -15z"/>
<path d="M741 1193 c-15 -13 -19 -25 -15 -40 7 -27 24 -21 24 9 0 11 8 27 18
34 9 7 12 14 6 14 -7 0 -21 -8 -33 -17z"/>
<path d="M811 1191 c-17 -11 -7 -41 13 -41 19 0 28 14 20 34 -7 18 -13 19 -33
7z"/>
<path d="M920 835 c-10 -12 -10 -15 4 -15 9 0 16 7 16 15 0 8 -2 15 -4 15 -2
0 -9 -7 -16 -15z"/>
<path d="M1001 824 c0 -11 3 -14 6 -6 3 7 2 16 -1 19 -3 4 -6 -2 -5 -13z"/>
<path d="M881 816 c-9 -10 -8 -15 2 -19 23 -9 41 8 24 22 -11 9 -17 8 -26 -3z"/>
<path d="M922 742 c-9 -6 -5 -12 13 -20 35 -16 37 -15 23 8 -14 22 -17 23 -36
12z"/>
<path d="M1080 740 c14 -4 34 -8 45 -8 l20 -1 -20 9 c-11 5 -31 8 -45 8 l-25
0 25 -8z"/>
<path d="M1056 2174 c-9 -23 -7 -44 3 -44 5 0 11 14 13 30 5 32 -6 41 -16 14z"/>
<path d="M1100 2120 c-12 -7 -10 -11 10 -18 14 -5 41 -12 60 -16 33 -7 34 -6
15 9 -11 8 -26 14 -35 12 -8 -1 -19 3 -25 10 -7 8 -15 9 -25 3z"/>
<path d="M1220 2096 c0 -7 8 -20 17 -27 15 -12 16 -12 11 2 -4 9 -1 22 5 28 8
8 5 11 -11 11 -12 0 -22 -6 -22 -14z"/>
<path d="M710 2080 c0 -5 5 -10 10 -10 6 0 10 5 10 10 0 6 -4 10 -10 10 -5 0
-10 -4 -10 -10z"/>
<path d="M1095 2070 c3 -5 8 -10 11 -10 2 0 4 5 4 10 0 6 -5 10 -11 10 -5 0
-7 -4 -4 -10z"/>
<path d="M622 2050 c0 -14 2 -19 5 -12 2 6 2 18 0 25 -3 6 -5 1 -5 -13z"/>
<path d="M770 2053 c0 -13 5 -23 10 -23 13 0 13 11 0 30 -8 12 -10 11 -10 -7z"/>
<path d="M1260 2060 c0 -6 7 -10 15 -10 8 0 15 2 15 4 0 2 -7 6 -15 10 -8 3
-15 1 -15 -4z"/>
<path d="M680 2051 c0 -5 10 -12 23 -16 13 -4 17 -8 10 -12 -17 -6 -16 -33 2
-57 10 -13 21 -17 39 -12 37 9 33 29 -4 21 -23 -5 -30 -3 -30 9 0 9 7 16 15
16 19 0 19 27 1 46 -16 15 -56 19 -56 5z"/>
<path d="M635 2018 c-2 -7 -6 -29 -7 -48 -3 -30 -7 -35 -30 -38 -28 -3 -35
-12 -20 -26 4 -4 7 -24 7 -44 0 -33 2 -37 25 -35 14 1 19 0 13 -3 -18 -8 -16
-24 2 -24 8 0 15 4 15 9 0 5 11 19 25 32 28 27 31 39 10 39 -9 0 -12 6 -9 15
4 8 1 15 -5 15 -6 0 -11 -4 -11 -10 0 -5 -4 -10 -10 -10 -5 0 -10 5 -10 11 0
14 26 39 41 39 8 0 9 10 5 31 -3 17 -6 38 -6 45 0 17 -29 18 -35 2z m15 -158
c0 -5 -4 -10 -10 -10 -5 0 -10 5 -10 10 0 6 5 10 10 10 6 0 10 -4 10 -10z"/>
<path d="M1390 2010 c-13 -8 -12 -10 3 -10 9 0 17 5 17 10 0 12 -1 12 -20 0z"/>
<path d="M0 1559 c0 -56 13 -58 24 -3 5 22 2 35 -9 44 -13 11 -15 6 -15 -41z"/>
<path d="M2 1420 l3 -60 32 0 c41 0 44 23 11 81 -33 59 -50 52 -46 -21z"/>
<path d="M1 1295 l1 -60 9 50 c5 30 4 54 -1 59 -7 7 -10 -12 -9 -49z"/>
<path d="M510 1340 c0 -5 5 -10 10 -10 6 0 10 5 10 10 0 6 -4 10 -10 10 -5 0
-10 -4 -10 -10z"/>
<path d="M33 1290 c0 -37 19 -35 23 3 2 17 -2 27 -10 27 -7 0 -13 -13 -13 -30z"/>
<path d="M231 1294 c0 -11 3 -14 6 -6 3 7 2 16 -1 19 -3 4 -6 -2 -5 -13z"/>
<path d="M241 1244 c0 -11 3 -14 6 -6 3 7 2 16 -1 19 -3 4 -6 -2 -5 -13z"/>
</g>
</svg>
